<svg width="445" height="445" viewBox="0 0 445 445" fill="none" xmlns="http://www.w3.org/2000/svg">
<g clip-path="url(#clip0_400_22)">
<path d="M329.608 0.00866699H445V115.392H329.608V0.00866699ZM439.478 5.53071H335.13V109.869H439.478V5.53071Z" fill="white" fill-opacity="0.05"/>
<path d="M219.739 109.87H335.131V225.261H219.739V109.87ZM329.609 115.392H225.261V219.739H329.609V115.392Z" fill="white" fill-opacity="0.05"/>
<path d="M109.869 109.87H225.261V225.261H109.869V109.87ZM219.739 115.392H115.391V219.739H219.739V115.392Z" fill="white" fill-opacity="0.05"/>
<path d="M219.739 219.739H335.131V335.122H219.739V219.739ZM329.609 225.261H225.261V329.6H329.609V225.261Z" fill="white" fill-opacity="0.05"/>
<path d="M219.739 0.00866699H335.131V115.392H219.739V0.00866699ZM329.609 5.53071H225.261V109.869H329.609V5.53071Z" fill="white" fill-opacity="0.05"/>
<path d="M109.869 0.00866699H225.261V115.392H109.869V0.00866699ZM219.739 5.53071H115.391V109.869H219.739V5.53071Z" fill="white" fill-opacity="0.05"/>
<path d="M0 0.00891113H115.391V115.392H0V0.00891113ZM109.869 5.53095H5.52204V109.87H109.869V5.53095Z" fill="white" fill-opacity="0.05"/>
<path d="M329.608 109.87H445V225.261H329.608V109.87ZM439.478 115.392H335.13V219.739H439.478V115.392Z" fill="white" fill-opacity="0.05"/>
<path d="M329.608 219.739H445V335.122H329.608V219.739ZM439.478 225.261H335.13V329.6H439.478V225.261Z" fill="white" fill-opacity="0.05"/>
<path d="M329.608 329.6H445V445H329.608V329.6ZM439.478 335.122H335.13V439.478H439.478V335.122Z" fill="white" fill-opacity="0.05"/>
</g>
<defs>
<clipPath id="clip0_400_22">
<rect width="445" height="445" fill="white"/>
</clipPath>
</defs>
</svg>
