<?xml version="1.0" encoding="UTF-8" standalone="no"?> <svg xmlns="http://www.w3.org/2000/svg" xmlns:xlink="http://www.w3.org/1999/xlink" viewBox="0 0 512 512"><defs><style>.cls-1{fill:url(#linear-gradient);}.cls-2{fill:url(#linear-gradient-4);}.cls-3{fill:url(#linear-gradient-6);}</style><linearGradient id="linear-gradient" x1="256" y1="-5.20047" x2="256" y2="497.22825" gradientUnits="userSpaceOnUse"><stop offset="0" stop-color="#2ab793"/><stop offset="1" stop-color="#2c98b5"/></linearGradient><linearGradient id="linear-gradient-4" x1="100" y1="-5.20047" x2="100" y2="497.22825" xlink:href="#linear-gradient"/><linearGradient id="linear-gradient-6" x1="412" y1="-5.20047" x2="412" y2="497.22825" xlink:href="#linear-gradient"/></defs><g id="GRADIENT"><path class="cls-1" d="M192,176h37.75366l-4,16H216v16h80V192h-9.75366l-4-16H320a24.0275,24.0275,0,0,0,24-24V40a24.0275,24.0275,0,0,0-24-24H192a24.0275,24.0275,0,0,0-24,24V152A24.0275,24.0275,0,0,0,192,176Zm77.75366,16H242.24634l4-16h19.50732ZM320,160H192a8.00917,8.00917,0,0,1-8-8v-8H328v8A8.00917,8.00917,0,0,1,320,160ZM251.57764,95.15527A8.0037,8.0037,0,0,0,256,88.03906a8.0037,8.0037,0,0,0,4.42236,7.11621l9.001,4.50049a7.95049,7.95049,0,0,1,4.2666,5.58643L278.24146,128H233.75854l4.55152-22.75781a7.95049,7.95049,0,0,1,4.2666-5.58643ZM248,73.37256V72a8,8,0,0,1,16,0v1.37256a7.94834,7.94834,0,0,1-2.34326,5.65723l-3.31348,3.31347A7.99789,7.99789,0,0,0,256,87.96a7.99789,7.99789,0,0,0-2.34326-5.6167l-3.31348-3.31347A7.94834,7.94834,0,0,1,248,73.37256ZM192,32H320a8.00917,8.00917,0,0,1,8,8v88H294.55847l-5.17908-25.89551a23.841,23.841,0,0,0-12.62011-16.668A23.85563,23.85563,0,0,0,280,73.37256V72a24,24,0,0,0-48,0v1.37256a23.85563,23.85563,0,0,0,3.24072,12.064,23.841,23.841,0,0,0-12.62011,16.668L217.44153,128H184V40A8.00917,8.00917,0,0,1,192,32Z"/><path class="cls-1" d="M472,160H360v16H472a8.00917,8.00917,0,0,1,8,8v88H446.55847l-5.17908-25.89551a23.841,23.841,0,0,0-12.62011-16.668A23.85563,23.85563,0,0,0,432,217.37256V216a24,24,0,0,0-48,0v1.37256a23.85563,23.85563,0,0,0,3.24072,12.064,23.841,23.841,0,0,0-12.62011,16.668L369.44153,272H336V200H320v96a23.88177,23.88177,0,0,0,1.39087,8.04333C320.93018,304.01685,320.46716,304,320,304H192c-.46716,0-.93018.01685-1.39087.04333A23.88177,23.88177,0,0,0,192,296V200H176v72H142.55847l-5.17908-25.89551a23.841,23.841,0,0,0-12.62011-16.668A23.85563,23.85563,0,0,0,128,217.37256V216a24,24,0,0,0-48,0v1.37256a23.85563,23.85563,0,0,0,3.24072,12.064,23.841,23.841,0,0,0-12.62011,16.668L65.44153,272H32V184a8.00917,8.00917,0,0,1,8-8H152V160H40a24.0275,24.0275,0,0,0-24,24V296a24.0275,24.0275,0,0,0,24,24H77.75366l-4,16H64v16h80V336h-9.75366l-4-16H168c.46716,0,.93018-.01685,1.39087-.04333A23.88177,23.88177,0,0,0,168,328V440a24.0275,24.0275,0,0,0,24,24h37.75366l-4,16H216v16h80V480h-9.75366l-4-16H320a24.0275,24.0275,0,0,0,24-24V328a23.88177,23.88177,0,0,0-1.39087-8.04333c.46069.02648.92371.04333,1.39087.04333h37.75366l-4,16H368v16h80V336h-9.75366l-4-16H472a24.0275,24.0275,0,0,0,24-24V184A24.0275,24.0275,0,0,0,472,160Zm-72,56a8,8,0,0,1,16,0v1.37256a7.94834,7.94834,0,0,1-2.34326,5.65723l-3.31348,3.31347A7.99789,7.99789,0,0,0,408,231.96a7.99789,7.99789,0,0,0-2.34326-5.6167l-3.31348-3.31347A7.94834,7.94834,0,0,1,400,217.37256Zm-9.68994,33.24219a7.95049,7.95049,0,0,1,4.2666-5.58643l9.001-4.50049A8.0037,8.0037,0,0,0,408,232.03906a8.0037,8.0037,0,0,0,4.42236,7.11621l9.001,4.50049a7.95049,7.95049,0,0,1,4.2666,5.58643L430.24146,272H385.75854ZM320,320a8.00917,8.00917,0,0,1,8,8v88H294.55847l-5.17908-25.89551a23.841,23.841,0,0,0-12.62011-16.668A23.85563,23.85563,0,0,0,280,361.37256V360a24,24,0,0,0-48,0v1.37256a23.85563,23.85563,0,0,0,3.24072,12.064,23.841,23.841,0,0,0-12.62011,16.668L217.44153,416H184V328a8.00917,8.00917,0,0,1,8-8Zm-68.42236,63.15527A8.0037,8.0037,0,0,0,256,376.03906a8.0037,8.0037,0,0,0,4.42236,7.11621l9.001,4.50049a7.95049,7.95049,0,0,1,4.2666,5.58643L278.24146,416H233.75854l4.55152-22.75781a7.95049,7.95049,0,0,1,4.2666-5.58643ZM248,361.37256V360a8,8,0,0,1,16,0v1.37256a7.94834,7.94834,0,0,1-2.34326,5.65723l-3.31348,3.31347A7.99789,7.99789,0,0,0,256,375.96a7.99789,7.99789,0,0,0-2.34326-5.6167l-3.31348-3.31347A7.94834,7.94834,0,0,1,248,361.37256ZM96,216a8,8,0,0,1,16,0v1.37256a7.94834,7.94834,0,0,1-2.34326,5.65723l-3.31348,3.31347A7.99789,7.99789,0,0,0,104,231.96a7.99789,7.99789,0,0,0-2.34326-5.6167l-3.31348-3.31347A7.94834,7.94834,0,0,1,96,217.37256Zm-9.68994,33.24219a7.95049,7.95049,0,0,1,4.2666-5.58643l9.001-4.50049A8.0037,8.0037,0,0,0,104,232.03906a8.0037,8.0037,0,0,0,4.42236,7.11621l9.001,4.50049a7.95049,7.95049,0,0,1,4.2666,5.58643L126.24146,272H81.75854ZM117.75366,336H90.24634l4-16h19.50732ZM40,304a8.00917,8.00917,0,0,1-8-8v-8H176v8a8.00917,8.00917,0,0,1-8,8ZM269.75366,480H242.24634l4-16h19.50732ZM320,448H192a8.00917,8.00917,0,0,1-8-8v-8H328v8A8.00917,8.00917,0,0,1,320,448ZM421.75366,336H394.24634l4-16h19.50732ZM472,304H344a8.00917,8.00917,0,0,1-8-8v-8H480v8A8.00917,8.00917,0,0,1,472,304Z"/><polygon class="cls-1" points="264 288 264 264 304 264 304 248 264 248 264 224 248 224 248 248 208 248 208 264 248 264 248 288 264 288"/><path class="cls-2" d="M64,72a8.00917,8.00917,0,0,1,8-8h80V48H72A24.02687,24.02687,0,0,0,48,72v72H64Z"/><path class="cls-2" d="M64,440V368H48v72a24.02687,24.02687,0,0,0,24,24h80V448H72A8.00917,8.00917,0,0,1,64,440Z"/><path class="cls-3" d="M448,440a8.00917,8.00917,0,0,1-8,8H360v16h80a24.02687,24.02687,0,0,0,24-24V368H448Z"/><path class="cls-3" d="M448,72v72h16V72a24.02687,24.02687,0,0,0-24-24H360V64h80A8.00917,8.00917,0,0,1,448,72Z"/></g></svg>