<?xml version="1.0" encoding="utf-8"?>
<!-- Generator: Adobe Illustrator 17.0.0, SVG Export Plug-In . SVG Version: 6.00 Build 0)  -->
<!DOCTYPE svg PUBLIC "-//W3C//DTD SVG 1.1//EN" "http://www.w3.org/Graphics/SVG/1.1/DTD/svg11.dtd">
<svg version="1.1" id="Calque_1" xmlns="http://www.w3.org/2000/svg" xmlns:xlink="http://www.w3.org/1999/xlink" x="0px" y="0px"
	 width="512px" height="512px" viewBox="0 0 512 512" enable-background="new 0 0 512 512" xml:space="preserve">
<g>
	<path fill="#23130D" d="M457.48,285.04c11.32-5.14,19.21-16.53,19.21-29.75c0-18.01-14.65-32.67-32.66-32.67H341.14
		c-8.64,0-15.67-7.1-15.67-15.83c0-4.33,1.72-8.35,4.84-11.33c0.02-0.01,0.03-0.04,0.05-0.06c0.02-0.01,0.04-0.02,0.05-0.04
		l50.42-50.94c6.17-6.17,9.57-14.37,9.57-23.1c0-8.72-3.4-16.93-9.57-23.09c-12.74-12.74-33.47-12.74-46.2,0L206.24,226.61
		c-5.05-3.64-11.1-5.61-17.46-5.61c-1.41,0-2.8,0.1-4.17,0.29v-6.05c0-2.76-2.23-5-5-5H40.31c-2.76,0-5,2.24-5,5v247.83
		c0,2.76,2.24,5,5,5h139.3c2.77,0,5-2.24,5-5v-8.32c1.37,0.19,2.76,0.29,4.17,0.29c12.38,0,23.03-7.54,27.61-18.27
		c7.41,10.39,19.56,17.19,33.27,17.19h165.6c0.11,0,0.2-0.03,0.31-0.03c17.45-0.64,31.46-15.03,31.46-32.64
		c0-9.75-4.3-18.51-11.1-24.5c12.75-4.46,21.92-16.59,21.92-30.84c0-9.62-4.18-18.28-10.82-24.26
		c13.42-4.29,23.43-16.78,23.43-31.07C470.46,300.39,465.33,291.08,457.48,285.04z M174.61,458.07H45.31V220.24h129.3V458.07z
		 M208.78,425.04c0,11.03-8.97,20-20,20c-1.42,0-2.81-0.16-4.17-0.45V231.45c1.36-0.28,2.75-0.45,4.17-0.45
		c5.38,0,10.42,2.1,14.2,5.93c3.74,3.75,5.8,8.75,5.8,14.07V425.04z M436.9,333.28h-31.36c-2.76,0-5,2.24-5,5c0,2.76,2.24,5,5,5
		h19.57c0.03,0,0.05,0.01,0.07,0.01c12.5,0,22.67,10.17,22.67,22.66c0,12.5-10.17,22.67-22.67,22.67h-31.35c-2.76,0-5,2.23-5,5
		c0,2.76,2.24,5,5,5h20.43c0.03,0,0.07,0.01,0.1,0.01c12.5,0,22.67,10.16,22.67,22.66s-10.17,22.67-22.67,22.67h-164.7
		c-17.02,0-30.87-13.85-30.87-30.87c0-0.05-0.01-0.1-0.01-0.14V251c0-6.29-1.93-12.28-5.49-17.29L341.7,105.3
		c8.84-8.84,23.22-8.84,32.06,0c4.28,4.28,6.64,9.97,6.64,16.02c0,6.06-2.36,11.75-6.66,16.05l-50.43,50.96
		c-0.01,0-0.01,0.01-0.02,0.01c-5.04,4.87-7.82,11.42-7.82,18.45c0,14.25,11.51,25.83,25.67,25.83h102.89
		c12.49,0,22.66,10.17,22.66,22.67s-10.17,22.66-22.66,22.66h-30.34c-2.76,0-5,2.24-5,5c0,2.77,2.24,5,5,5h23.17
		c0.01,0,0.03,0.01,0.04,0.01c12.77,0,23.56,10.37,23.56,22.66C460.46,322.9,449.67,333.28,436.9,333.28z"/>
	<path fill="#F8D3C9" d="M460.46,310.62c0,12.28-10.79,22.66-23.56,22.66h-31.36c-2.76,0-5,2.24-5,5c0,2.76,2.24,5,5,5h19.57
		c0.03,0,0.05,0.01,0.07,0.01c12.5,0,22.67,10.17,22.67,22.66c0,12.5-10.17,22.67-22.67,22.67h-31.35c-2.76,0-5,2.23-5,5
		c0,2.76,2.24,5,5,5h20.43c0.03,0,0.07,0.01,0.1,0.01c12.5,0,22.67,10.16,22.67,22.66s-10.17,22.67-22.67,22.67h-164.7
		c-17.02,0-30.87-13.85-30.87-30.87c0-0.05-0.01-0.1-0.01-0.14V251c0-6.29-1.93-12.28-5.49-17.29L341.7,105.3
		c8.84-8.84,23.22-8.84,32.06,0c4.28,4.28,6.64,9.97,6.64,16.02c0,6.06-2.36,11.75-6.66,16.05l-50.43,50.96
		c-0.01,0-0.01,0.01-0.02,0.01c-5.04,4.87-7.82,11.42-7.82,18.45c0,14.25,11.51,25.83,25.67,25.83h102.89
		c12.49,0,22.66,10.17,22.66,22.67s-10.17,22.66-22.66,22.66h-30.34c-2.76,0-5,2.24-5,5c0,2.77,2.24,5,5,5h23.17
		c0.01,0,0.03,0.01,0.04,0.01C449.67,287.96,460.46,298.33,460.46,310.62z"/>
	<path opacity="0.2" fill="#23130D" d="M372.95,105.3L244.54,233.71c3.56,5.01,5.49,11,5.49,17.29v161.95
		c0,0.04,0.01,0.09,0.01,0.14c0,17.02,13.85,30.87,30.87,30.87h-31.25c-17.02,0-30.87-13.85-30.87-30.87c0-0.05-0.01-0.1-0.01-0.14
		V251c0-6.29-1.93-12.28-5.49-17.29L341.7,105.3c8.71-8.71,22.79-8.84,31.66-0.39C373.22,105.03,373.08,105.17,372.95,105.3z"/>
	<path fill="#E1E1E5" d="M208.78,251v174.04c0,11.03-8.97,20-20,20c-1.42,0-2.81-0.16-4.17-0.45V231.45
		c1.36-0.28,2.75-0.45,4.17-0.45c5.38,0,10.42,2.1,14.2,5.93C206.72,240.68,208.78,245.68,208.78,251z"/>
	<path opacity="0.2" fill="#23130D" d="M196.7,232.63v210.78c-2.43,1.05-5.11,1.63-7.92,1.63c-1.42,0-2.81-0.16-4.17-0.45V231.45
		c1.36-0.28,2.75-0.45,4.17-0.45C191.55,231,194.24,231.56,196.7,232.63z"/>
	<rect x="45.31" y="220.24" fill="#3594BF" width="129.3" height="237.83"/>
	<rect x="45.31" y="220.24" opacity="0.4" fill="#FFFFFF" width="129.3" height="20.26"/>
	<rect x="45.31" y="437.81" opacity="0.2" fill="#23130D" width="129.3" height="20.26"/>
	<path fill="#23130D" d="M378.684,73.734c0.684,0.319,1.402,0.47,2.11,0.47c1.883,0,3.686-1.068,4.534-2.888l7.378-15.818
		c1.167-2.502,0.085-5.478-2.418-6.645c-2.501-1.165-5.476-0.085-6.645,2.418l-7.378,15.818
		C375.099,69.592,376.181,72.567,378.684,73.734z"/>
	<path fill="#23130D" d="M336.948,67.087c0.599,2.234,2.619,3.708,4.827,3.708c0.428,0,0.863-0.056,1.296-0.171
		c2.668-0.714,4.251-3.456,3.537-6.123l-4.515-16.865c-0.714-2.667-3.458-4.249-6.123-3.537c-2.668,0.714-4.251,3.456-3.537,6.123
		L336.948,67.087z"/>
	<path fill="#23130D" d="M292.526,82.338l14.304,10.015c0.873,0.611,1.873,0.905,2.864,0.905c1.576,0,3.127-0.744,4.1-2.133
		c1.584-2.262,1.034-5.38-1.228-6.963l-14.304-10.015c-2.262-1.583-5.38-1.035-6.964,1.228
		C289.715,77.637,290.265,80.754,292.526,82.338z"/>
	<path fill="#23130D" d="M386.567,163.898c-2.262,1.584-2.812,4.702-1.228,6.963l10.013,14.3c0.973,1.389,2.523,2.133,4.1,2.133
		c0.991,0,1.991-0.293,2.864-0.905c2.262-1.584,2.812-4.702,1.228-6.963l-10.013-14.3
		C391.947,162.864,388.829,162.315,386.567,163.898z"/>
	<path fill="#23130D" d="M408.493,101.898c0.707,0,1.426-0.15,2.109-0.469l15.822-7.374c2.503-1.167,3.586-4.142,2.42-6.645
		c-1.167-2.504-4.142-3.589-6.645-2.419l-15.822,7.374c-2.503,1.167-3.586,4.142-2.42,6.645
		C404.807,100.83,406.61,101.898,408.493,101.898z"/>
	<path fill="#23130D" d="M407.722,135.275c-0.714,2.667,0.87,5.409,3.537,6.123l16.862,4.513c0.434,0.116,0.868,0.171,1.296,0.171
		c2.208,0,4.229-1.475,4.827-3.709c0.714-2.667-0.87-5.409-3.537-6.123l-16.862-4.513
		C411.173,131.026,408.436,132.608,407.722,135.275z"/>
</g>
</svg>
