<svg id="FINGERPRINT" xmlns="http://www.w3.org/2000/svg" xmlns:xlink="http://www.w3.org/1999/xlink" viewBox="0 0 64 64"><defs><style>.cls-1{fill:url(#linear-gradient);}.cls-2{fill:url(#linear-gradient-2);}.cls-3{fill:url(#linear-gradient-3);}.cls-4{fill:url(#linear-gradient-4);}.cls-5{fill:url(#linear-gradient-5);}.cls-6{fill:url(#linear-gradient-6);}.cls-7{fill:url(#linear-gradient-7);}.cls-8{fill:url(#linear-gradient-8);}.cls-9{fill:url(#linear-gradient-9);}.cls-10{fill:url(#linear-gradient-10);}.cls-11{fill:url(#linear-gradient-11);}</style><linearGradient id="linear-gradient" x1="18.75" y1="42.45" x2="32.89" y2="42.45" gradientUnits="userSpaceOnUse"><stop offset="0" stop-color="#9f2fff"/><stop offset="1" stop-color="#0bb1d3"/></linearGradient><linearGradient id="linear-gradient-2" x1="15.07" y1="41.45" x2="36.93" y2="41.45" xlink:href="#linear-gradient"/><linearGradient id="linear-gradient-3" x1="12.05" y1="40.03" x2="40.9" y2="40.03" xlink:href="#linear-gradient"/><linearGradient id="linear-gradient-4" x1="9.71" y1="38.05" x2="44.92" y2="38.05" xlink:href="#linear-gradient"/><linearGradient id="linear-gradient-5" x1="8.01" y1="35.15" x2="48.95" y2="35.15" xlink:href="#linear-gradient"/><linearGradient id="linear-gradient-6" x1="7.06" y1="23.67" x2="57" y2="23.67" xlink:href="#linear-gradient"/><linearGradient id="linear-gradient-7" x1="7" y1="30.84" x2="52.97" y2="30.84" xlink:href="#linear-gradient"/><linearGradient id="linear-gradient-8" x1="3" y1="8" x2="12.98" y2="8" xlink:href="#linear-gradient"/><linearGradient id="linear-gradient-9" x1="51.02" y1="7.99" x2="61" y2="7.99" xlink:href="#linear-gradient"/><linearGradient id="linear-gradient-10" x1="51.02" y1="56" x2="61" y2="56" xlink:href="#linear-gradient"/><linearGradient id="linear-gradient-11" x1="3" y1="56.01" x2="12.98" y2="56.01" xlink:href="#linear-gradient"/></defs><path class="cls-1" d="M27.23,47.84a25,25,0,0,0,5.25-11.59c0-1.27,1.25-5-.65-5.17a1,1,0,0,0-1,1,23,23,0,0,1-2.89,11.17,23.17,23.17,0,0,1-8.69,8.8,1,1,0,0,0-.37,1.36C20.18,55.5,26.21,49.11,27.23,47.84Z"/><path class="cls-2" d="M31.64,48.67c3.49-4.59,10-21.51-.22-21.58h0c-6.07.74-3.93,6.87-5.58,11A19.1,19.1,0,0,1,15.65,49.4,1,1,0,0,0,15.36,51c1.26,1,3.78-1.41,5-2.08A21,21,0,0,0,28.8,32.08a3,3,0,0,1,2.88-3c7,.14.82,15.52-1.68,18.44a27.05,27.05,0,0,1-6.47,6.56,1,1,0,0,0-.23,1.4C24.76,57.46,30.74,50,31.64,48.67Z"/><path class="cls-3" d="M39.17,42.61a32.88,32.88,0,0,0,1.71-10.06c.5-7.65-8.78-12.39-14.71-7.52-4.66,3.27-2.46,9.34-5,13.73a15.21,15.21,0,0,1-8.5,7.51,1,1,0,0,0,.67,1.89,17.13,17.13,0,0,0,11.4-16.08c.37-9.55,14.27-9.15,14.11.4A31,31,0,0,1,28.47,55.25,1,1,0,0,0,29.13,57C34,53.84,37.17,48,39.17,42.61Z"/><path class="cls-4" d="M44.92,32.08c-.65-17.3-25.52-17.25-26.17,0a11.12,11.12,0,0,1-8.32,10.69,1,1,0,0,0,.5,1.94,13.12,13.12,0,0,0,9.82-12.63,10.84,10.84,0,0,1,2.15-6.53c6.12-8.54,20.16-4,20,6.53A35,35,0,0,1,34.11,55.3a1,1,0,0,0,1.5,1.32A37,37,0,0,0,44.92,32.08Z"/><path class="cls-5" d="M42.18,18.51c-8.12-6.5-21.28-3.42-25.68,6a16.85,16.85,0,0,0-1.78,7.57A7.07,7.07,0,0,1,8.84,39,1,1,0,0,0,8,40.16c.48,2,4.35-.27,5.3-1a9,9,0,0,0,3.4-7.05c1.61-24.37,41.35-19,27.3,14.81A38.8,38.8,0,0,1,40.4,53.7a1,1,0,0,0,.28,1.39c1.74,1.28,4.38-6,5.14-7.32C49.6,38.38,51.54,25.31,42.18,18.51Z"/><path class="cls-6" d="M9.81,19.93c-.74,1.41-4.29,8.69-2,9.14A1,1,0,0,0,9,28.24C16-3.63,62.17,7.31,53.94,39a1,1,0,0,0,1.91.6C64.21,10.61,25-6,9.81,19.93Z"/><path class="cls-7" d="M45.66,16.16c-13.54-11.76-35-2-35,15.92a3,3,0,0,1-2.77,3,1,1,0,1,0,.16,2,5,5,0,0,0,4.61-5c2.85-32,52.12-22,34.7,17.2a1,1,0,0,0,1.83.8C53.84,39.32,55.72,24.48,45.66,16.16Z"/><path class="cls-8" d="M4,13a1,1,0,0,0,1-1V5h7a1,1,0,0,0,0-2H4A1,1,0,0,0,3,4v8A1,1,0,0,0,4,13Z"/><path class="cls-9" d="M60,3H52a1,1,0,0,0,0,2h7v7a1,1,0,0,0,2,0V4A1,1,0,0,0,60,3Z"/><path class="cls-10" d="M60,51a1,1,0,0,0-1,1v7H52a1,1,0,0,0,0,2h8a1,1,0,0,0,1-1V52A1,1,0,0,0,60,51Z"/><path class="cls-11" d="M12,59H5V52a1,1,0,0,0-2,0v8a1,1,0,0,0,1,1h8A1,1,0,0,0,12,59Z"/></svg>