<?xml version="1.0" encoding="UTF-8" standalone="no"?> <svg xmlns="http://www.w3.org/2000/svg" xmlns:xlink="http://www.w3.org/1999/xlink" viewBox="0 0 64 64"><defs><style>.cls-1{fill:url(#linear-gradient);}.cls-2{fill:url(#linear-gradient-2);}.cls-3{fill:url(#linear-gradient-3);}.cls-4{fill:url(#linear-gradient-4);}.cls-5{fill:url(#linear-gradient-5);}.cls-6{fill:url(#linear-gradient-6);}.cls-7{fill:url(#linear-gradient-7);}</style><linearGradient id="linear-gradient" x1="18.07" y1="32" x2="61.97" y2="32" gradientUnits="userSpaceOnUse"><stop offset="0" stop-color="#17a6d7"/><stop offset="1" stop-color="#9d31fe"/></linearGradient><linearGradient id="linear-gradient-2" x1="37.96" y1="33.81" x2="49.89" y2="33.81" xlink:href="#linear-gradient"/><linearGradient id="linear-gradient-3" x1="2.07" y1="16.01" x2="21.93" y2="16.01" xlink:href="#linear-gradient"/><linearGradient id="linear-gradient-4" x1="2.07" y1="26.01" x2="15.91" y2="26.01" xlink:href="#linear-gradient"/><linearGradient id="linear-gradient-5" x1="2.07" y1="36.01" x2="14.35" y2="36.01" xlink:href="#linear-gradient"/><linearGradient id="linear-gradient-6" x1="2.07" y1="46.01" x2="15.91" y2="46.01" xlink:href="#linear-gradient"/><linearGradient id="linear-gradient-7" x1="2.07" y1="56.01" x2="21.93" y2="56.01" xlink:href="#linear-gradient"/></defs><g id="Layer_55" data-name="Layer 55"><path class="cls-1" d="M61.37,17.1a2,2,0,0,0-2.83-2.83L53.85,19A21.86,21.86,0,0,0,42,14.11V10h4a2,2,0,0,0,0-4h-12a2,2,0,1,0,0,4h4v4.12C10.3,17.56,12,57,40,58c18.67.08,28.85-22.26,16.74-36.24ZM40,54A18,18,0,0,1,22,36c1-23.89,35-23.87,36,0A18,18,0,0,1,40,54Z"/><path class="cls-2" d="M42,31.15V23.22a2,2,0,0,0-4,0v8.5a2,2,0,0,0,.3,1.06l7.92,12.68a2,2,0,0,0,3.39-2.12Z"/><path class="cls-3" d="M4,18H20a2,2,0,0,0,0-4H4A2,2,0,0,0,4,18Z"/><path class="cls-4" d="M4,28h9.9a2,2,0,0,0,0-4H4A2,2,0,0,0,4,28Z"/><path class="cls-5" d="M4,38h8.31a2,2,0,1,0,0-4H4A2,2,0,0,0,4,38Z"/><path class="cls-6" d="M4,48h9.9a2,2,0,0,0,0-4H4A2,2,0,0,0,4,48Z"/><path class="cls-7" d="M20,54H4a2,2,0,0,0,0,4H20A2,2,0,0,0,20,54Z"/></g></svg>