<?xml version="1.0" standalone="no"?>
<!DOCTYPE svg PUBLIC "-//W3C//DTD SVG 20010904//EN"
 "http://www.w3.org/TR/2001/REC-SVG-20010904/DTD/svg10.dtd">
<svg version="1.0" xmlns="http://www.w3.org/2000/svg"
 width="1920.000000pt" height="1080.000000pt" viewBox="0 0 1920.000000 1080.000000"
 preserveAspectRatio="xMidYMid meet">

<g transform="translate(0.000000,1080.000000) scale(0.100000,-0.100000)"
fill="#000000" stroke="none">
<path d="M0 5400 l0 -5400 9600 0 9600 0 0 5400 0 5400 -9600 0 -9600 0 0
-5400z m7110 5085 l0 -45 -135 0 -135 0 0 -25 0 -25 135 0 135 0 0 -110 0
-110 -181 0 -180 0 3 43 3 42 133 3 132 3 0 24 0 25 -135 0 -135 0 0 110 0
110 180 0 180 0 0 -45z m410 -135 l0 -180 -45 0 c-45 0 -45 0 -45 35 l0 35
-90 0 -90 0 0 -35 c0 -35 0 -35 -45 -35 l-45 0 0 180 0 180 180 0 180 0 0
-180z m410 135 l0 -45 -135 0 -135 0 0 -25 0 -25 135 0 135 0 0 -40 0 -40 -42
-1 c-24 -1 -85 0 -135 0 l-93 2 0 -71 0 -70 -45 0 -45 0 0 180 0 180 180 0
180 0 0 -45z m410 0 l0 -45 -135 0 -135 0 0 -25 0 -25 135 0 135 0 0 -40 0
-40 -135 0 -135 0 0 -25 0 -25 135 0 135 0 0 -45 0 -45 -180 0 -180 0 0 180 0
180 180 0 180 0 0 -45z m550 -135 l0 -180 -45 0 -45 0 0 135 0 135 -60 0 -60
0 0 -135 0 -135 -40 0 -40 0 0 135 0 135 -60 0 -60 0 0 -135 0 -135 -45 0 -45
0 0 180 0 180 250 0 250 0 0 -180z m410 0 l0 -180 -180 0 -180 0 0 180 0 180
180 0 180 0 0 -180z m410 0 l0 -180 -180 0 -180 0 0 180 0 180 180 0 180 0 0
-180z m142 148 c3 -27 16 -41 88 -94 47 -35 88 -63 93 -63 4 -1 7 42 7 94 l0
95 40 0 40 0 0 -180 0 -180 -40 0 c-37 0 -40 2 -40 28 0 23 -14 37 -92 93
l-93 66 -3 -93 -3 -94 -44 0 -45 0 0 180 0 180 44 0 c43 0 45 -1 48 -32z
m1003 -13 l0 -40 -137 -3 -138 -3 0 -89 0 -89 138 -3 137 -3 3 -42 3 -43 -180
0 -181 0 0 180 0 180 178 -2 177 -3 0 -40z m135 -25 l0 -70 95 0 95 0 0 71 0
70 43 -3 42 -3 3 -177 2 -178 -45 0 -45 0 0 70 0 70 -95 0 -95 0 0 -70 0 -70
-40 0 -40 0 0 180 0 180 40 0 40 0 0 -70z m688 -112 l2 -178 -45 0 c-45 0 -45
0 -45 35 l0 35 -95 0 -95 0 0 -35 c0 -34 -1 -35 -40 -35 l-40 0 0 180 0 180
178 -2 177 -3 3 -177z m132 2 l0 -180 -40 0 -40 0 0 180 0 180 40 0 40 0 0
-180z m140 150 c0 -25 12 -37 93 -95 l92 -66 3 96 3 96 42 -3 42 -3 3 -177 2
-178 -44 0 c-43 0 -45 1 -48 31 -3 26 -16 40 -95 96 l-93 64 0 -95 0 -96 -40
0 -40 0 0 180 0 180 40 0 c38 0 40 -2 40 -30z m-5447 -529 l397 -1 0 -90 0
-90 2695 0 2695 0 0 92 0 93 2855 -3 2855 -2 0 -126 c0 -96 -3 -125 -12 -122
-9 3 -14 37 -16 111 l-3 107 -2824 0 -2825 0 0 -90 0 -90 -2730 0 -2730 0 0
90 0 90 -2815 0 -2815 0 0 -90 c0 -73 -3 -90 -15 -90 -12 0 -15 18 -15 105 l0
105 2013 2 c1106 2 2210 2 2452 1 242 -1 619 -2 838 -2z m-3233 -156 l0 -75
-990 0 -990 0 0 75 0 75 990 0 990 0 0 -75z m14620 0 l0 -75 -620 0 -620 0 0
75 0 75 620 0 620 0 0 -75z m-14433 33 c28 -27 33 -39 33 -80 l0 -48 -75 0
-75 0 0 42 c0 35 6 49 37 80 20 21 39 38 42 38 3 0 20 -14 38 -32z m13080 0
c28 -27 33 -39 33 -80 l0 -48 -70 0 -70 0 0 47 c0 39 5 52 32 80 18 18 34 33
37 33 3 0 20 -14 38 -32z m113 -773 l0 250 85 -85 85 -85 0 120 0 120 285
-285 285 -285 0 250 0 250 85 -85 85 -85 0 120 0 120 295 -295 295 -295 -287
-287 c-159 -159 -291 -288 -295 -288 -5 0 -8 53 -8 117 l0 118 -85 -85 -85
-85 0 245 0 245 -285 -285 -285 -285 0 125 0 125 -85 -85 -85 -85 0 245 0 245
-285 -285 -285 -285 0 125 0 125 -85 -85 -85 -85 0 515 0 515 85 -85 85 -85 0
120 0 120 285 -285 285 -285 0 250z m-9644 -333 c-2 -2 -98 6 -212 18 -115 11
-311 23 -436 27 l-228 6 0 -151 0 -151 -201 -198 -201 -198 -171 -12 c-95 -7
-232 -19 -306 -28 -74 -8 -136 -13 -139 -10 -3 3 2 5 11 5 23 0 58 31 50 44
-11 18 -3 69 13 87 17 19 43 15 57 -8 5 -7 12 -11 16 -8 5 2 14 -9 21 -25 7
-17 16 -30 20 -30 8 0 2 36 -9 55 -6 11 12 -9 50 -52 26 -31 39 -29 39 6 0 21
-6 32 -19 36 -24 7 -29 22 -35 99 l-5 60 87 90 c47 50 284 290 527 533 l440
443 317 -317 c175 -174 316 -319 314 -321z m457 -877 c43 -8 81 -15 83 -15 11
0 -1 -26 -52 -106 -30 -49 -83 -140 -117 -201 l-62 -113 -45 1 c-99 2 -99 -3
0 159 49 80 89 151 90 158 0 6 -10 12 -22 12 -47 0 -52 13 -24 69 30 58 31 59
149 36z m274 -80 l113 -36 -26 -52 c-15 -29 -27 -53 -28 -54 -1 -1 -35 9 -76
22 -69 22 -76 22 -87 7 -19 -24 -16 -29 22 -48 105 -49 112 -140 17 -226 -107
-97 -252 -87 -278 19 -6 23 22 133 33 133 2 0 26 -11 52 -25 38 -19 48 -29 44
-43 -12 -47 67 -28 82 19 10 29 -12 45 -87 66 -32 9 -58 20 -58 25 0 8 84 163
117 216 9 15 20 21 31 18 9 -3 68 -22 129 -41z m308 -90 c41 -40 26 -129 -34
-199 -15 -18 -13 -18 14 1 17 12 65 48 109 81 l78 61 49 -27 c27 -15 49 -30
49 -34 0 -3 -39 -35 -86 -70 l-85 -63 40 -3 c71 -5 99 -68 66 -148 -36 -87
-107 -144 -180 -144 -48 0 -74 15 -90 52 -13 32 -4 91 16 112 5 6 9 14 9 18 0
5 -43 -23 -95 -62 -52 -38 -98 -70 -101 -70 -11 0 -94 54 -94 62 0 3 44 38 98
76 146 106 143 104 105 91 -40 -13 -96 3 -118 34 -24 34 -18 88 14 139 66 104
181 149 236 93z m-2615 -145 c26 -26 33 -59 28 -130 -5 -67 -9 -71 71 63 l53
88 57 -7 c31 -3 58 -8 60 -10 2 -1 -24 -48 -58 -104 -43 -71 -54 -97 -39 -86
12 9 40 16 60 16 32 0 41 -5 58 -32 40 -66 18 -197 -44 -257 -38 -37 -99 -51
-135 -31 -32 16 -54 75 -46 119 6 34 4 33 -34 -26 -22 -34 -50 -80 -63 -103
l-23 -41 -49 6 c-28 3 -56 9 -62 13 -9 5 9 42 61 125 68 107 72 116 45 102
-45 -23 -97 -19 -125 10 -21 20 -25 34 -25 82 0 145 136 277 210 203z m-230
-59 c0 -72 -6 -81 -54 -81 -22 0 -58 -3 -78 -6 -32 -6 -38 -11 -38 -30 0 -20
5 -24 33 -24 17 0 51 -9 74 -19 34 -16 44 -27 53 -58 32 -107 -85 -263 -196
-263 -70 0 -114 54 -114 140 l0 40 60 0 c53 0 60 -2 60 -20 0 -27 45 -27 60
-1 32 60 -9 89 -100 73 -30 -5 -57 -8 -59 -6 -6 5 19 233 28 258 7 19 21 22
132 32 68 6 127 12 132 13 4 0 7 -21 7 -48z m13550 -196 l0 -25 -2887 0 -2888
0 -522 -526 -523 -526 0 -1178 c0 -648 3 -1181 8 -1184 4 -2 1537 -8 3407 -11
1870 -4 3402 -9 3404 -11 2 -2 -1547 -4 -3442 -4 l-3447 0 0 1206 0 1206 537
539 537 539 2908 0 2908 0 0 -25z m-4909 -284 c18 -22 19 -43 19 -312 0 -276
-1 -290 -20 -309 -19 -19 -33 -20 -313 -20 -286 0 -294 1 -313 21 -17 19 -19
42 -22 288 -4 295 1 333 46 350 17 6 134 9 305 8 l279 -2 19 -24z m2017 -128
l3 -52 48 6 c147 17 216 -162 93 -244 -28 -18 -46 -21 -117 -21 -73 1 -86 4
-91 20 -3 11 -1 25 5 31 6 8 7 26 1 52 -13 55 -12 222 1 246 6 13 18 19 32 17
19 -3 22 -10 25 -55z m297 -128 c0 -165 -1 -180 -18 -183 -42 -8 -47 12 -47
182 0 170 5 190 45 184 19 -3 20 -10 20 -183z m1234 171 c8 -9 11 -65 9 -176
-3 -137 -6 -164 -19 -173 -9 -6 -24 -7 -33 -4 -14 6 -16 28 -16 180 0 96 3
177 7 180 11 12 40 8 52 -7z m-1119 -17 c15 -27 -5 -51 -39 -47 -26 3 -38 26
-27 54 8 22 54 17 66 -7z m-1995 -29 c29 -27 40 -75 26 -112 -7 -20 -7 -29 3
-38 21 -16 26 -61 11 -96 -20 -49 -50 -64 -125 -64 -75 0 -105 15 -125 64 -15
35 -10 80 11 96 10 9 10 18 3 38 -20 51 9 115 61 135 33 14 110 0 135 -23z
m281 5 c45 -29 64 -73 64 -150 0 -78 -16 -113 -66 -146 -61 -40 -152 -14 -188
54 -26 46 -20 175 9 208 54 60 122 73 181 34z m197 14 c24 -11 47 -47 47 -74
0 -29 -46 -68 -79 -68 -70 0 -101 84 -47 130 30 26 44 28 79 12z m225 -14 c5
-22 -284 -315 -309 -315 -9 0 -20 8 -23 17 -5 12 33 57 148 171 88 88 160 152
168 150 7 -3 15 -13 16 -23z m416 10 c60 -29 83 -103 51 -165 -22 -43 -63 -60
-144 -60 l-70 0 -3 -41 c-3 -45 -24 -67 -52 -56 -14 6 -16 27 -16 160 0 106 4
157 12 165 18 18 182 16 222 -3z m1586 0 c6 -8 10 -22 8 -32 -3 -16 -16 -18
-100 -21 -84 -2 -99 -5 -108 -22 -18 -34 12 -50 93 -50 76 0 103 -13 126 -57
20 -39 13 -73 -23 -109 l-34 -34 -111 0 c-96 0 -112 2 -120 18 -20 37 2 47
116 52 107 5 108 5 108 30 0 24 -3 25 -81 30 -95 6 -129 24 -143 75 -13 48 3
92 43 116 40 25 206 28 226 4z m-1442 -67 c7 -7 12 -40 12 -80 0 -77 19 -108
67 -108 47 0 63 25 63 100 0 72 15 104 46 98 17 -3 19 -13 20 -103 1 -55 5
-108 9 -118 15 -35 -11 -46 -105 -44 -79 2 -91 5 -115 27 -42 40 -55 73 -55
148 0 65 10 92 35 92 6 0 16 -5 23 -12z m716 6 c24 -9 24 -252 0 -261 -9 -3
-24 -2 -33 4 -13 8 -17 32 -19 123 -3 129 6 152 52 134z m246 -13 c39 -20 49
-51 25 -71 -13 -11 -21 -10 -49 5 -63 34 -122 -9 -100 -73 14 -39 56 -51 99
-28 28 16 37 17 50 6 39 -33 -2 -79 -78 -87 -84 -9 -153 60 -144 143 10 99
109 152 197 105z m716 3 c52 -25 78 -74 71 -138 -3 -29 -1 -59 3 -66 5 -8 4
-22 -1 -31 -13 -25 -172 -21 -211 4 -64 43 -75 143 -21 199 47 50 98 61 159
32z m402 2 c56 -29 92 -99 71 -137 -8 -16 -22 -19 -96 -19 -73 0 -84 -2 -73
-14 6 -8 30 -16 52 -18 80 -6 74 -68 -6 -68 -79 0 -138 57 -138 134 0 100 104
167 190 122z m-2661 -128 c30 -28 30 -74 1 -105 -29 -31 -72 -30 -103 2 -69
68 31 170 102 103z m-11290 -371 c307 -200 912 -593 1345 -875 l786 -512 1990
0 c1095 0 1992 -3 1994 -7 2 -5 0 -190 -3 -413 -6 -390 -7 -409 -32 -510 -80
-330 -234 -600 -492 -869 -386 -400 -900 -700 -1581 -922 -104 -34 -196 -68
-205 -75 -8 -8 -21 -14 -27 -14 -7 0 -12 -6 -12 -12 0 -7 -237 -250 -527 -540
l-528 -528 -447 447 -447 447 -123 7 c-199 12 -419 38 -634 74 -976 166 -1794
539 -2320 1060 -344 341 -530 696 -573 1097 -6 53 -11 275 -11 494 1 343 3
412 20 508 82 479 411 941 933 1310 91 64 308 196 324 196 7 0 263 -163 570
-363z m13576 -289 c8 -12 7 -21 -2 -32 -19 -23 -58 -20 -66 4 -14 43 44 67 68
28z m-3005 -10 c8 -8 12 -53 12 -134 l0 -123 26 -3 c35 -4 53 -31 35 -52 -20
-24 -176 -23 -190 1 -13 25 5 53 34 53 24 0 25 2 25 70 0 69 0 70 -24 64 -18
-4 -27 -1 -36 15 -9 18 -5 27 36 71 49 52 62 58 82 38z m340 3 c8 -4 12 -19
10 -32 -3 -23 -7 -24 -90 -27 l-88 -3 0 -34 0 -35 71 0 c65 0 73 -2 100 -29
46 -47 35 -127 -22 -157 -41 -20 -192 -19 -210 2 -9 11 -10 20 -2 32 8 13 31
18 99 22 87 5 89 6 89 30 0 24 -2 25 -85 30 -47 3 -91 9 -97 13 -17 11 -18
168 -1 185 14 14 205 17 226 3z m183 -20 c35 -36 37 -61 6 -97 -17 -19 -33
-27 -56 -27 -70 0 -101 84 -47 130 36 31 61 29 97 -6z m207 4 c5 -22 -284
-315 -309 -315 -9 0 -20 8 -23 17 -5 12 33 57 148 171 88 88 160 152 168 150
7 -3 15 -13 16 -23z m2416 9 c9 -8 16 -24 16 -35 0 -14 7 -19 29 -19 63 0 65
-62 2 -68 l-32 -3 3 -62 c3 -60 4 -62 32 -67 71 -12 53 -76 -19 -67 -63 9 -85
42 -85 128 0 61 -2 69 -19 69 -10 0 -24 7 -32 16 -16 20 -1 48 30 52 14 2 21
11 21 26 0 21 17 46 31 46 4 0 15 -7 23 -16z m-2029 -84 c29 -27 31 -42 9 -61
-13 -10 -20 -10 -44 4 -54 33 -110 10 -110 -45 0 -62 52 -86 111 -51 27 16 30
16 45 1 35 -34 -23 -88 -96 -88 -130 0 -179 181 -67 251 43 27 117 21 152 -11z
m236 15 c120 -62 72 -255 -63 -255 -39 0 -90 29 -113 63 -73 112 57 253 176
192z m277 -2 c21 -13 27 -13 59 2 48 23 99 14 138 -25 29 -29 30 -33 30 -121
0 -75 -3 -94 -17 -102 -32 -21 -48 8 -48 89 0 77 -13 104 -50 104 -37 0 -50
-27 -50 -104 0 -81 -16 -110 -48 -89 -13 7 -18 30 -22 89 -6 89 -12 104 -42
104 -44 0 -58 -27 -58 -112 0 -64 -3 -80 -16 -85 -9 -3 -24 -2 -33 4 -13 8
-16 31 -18 124 -1 63 0 119 2 125 5 18 145 16 173 -3z m436 1 c24 -12 32 -11
59 2 37 20 100 13 129 -13 32 -28 48 -77 48 -146 0 -69 -15 -101 -46 -95 -17
3 -19 13 -22 83 -3 86 -18 115 -57 115 -36 0 -45 -19 -45 -101 0 -83 -12 -106
-50 -94 -18 6 -20 15 -20 85 0 83 -12 110 -50 110 -37 0 -50 -27 -50 -104 0
-81 -16 -110 -48 -89 -14 8 -17 30 -19 124 -1 63 0 119 2 125 5 17 134 15 169
-2z m314 4 c7 -7 12 -40 12 -80 0 -77 19 -108 67 -108 47 0 63 25 63 100 0 72
15 104 46 98 17 -3 19 -13 20 -103 1 -55 5 -108 9 -118 15 -35 -11 -46 -105
-44 -79 2 -91 5 -115 27 -42 40 -55 73 -55 148 0 65 10 92 35 92 6 0 16 -5 23
-12z m317 2 c4 -7 12 -7 25 0 30 16 82 12 117 -10 50 -30 64 -68 61 -163 -3
-72 -5 -82 -22 -85 -31 -6 -46 26 -46 97 0 73 -16 101 -60 101 -45 0 -64 -32
-70 -118 -4 -64 -8 -77 -23 -80 -34 -7 -47 17 -47 84 0 34 4 74 10 88 6 16 6
27 0 31 -11 7 -13 48 -3 58 10 11 51 8 58 -3z m300 -125 c0 -127 0 -130 -23
-133 -28 -4 -30 2 -35 122 -6 116 3 149 36 144 22 -3 22 -6 22 -133z m325 116
c5 -11 10 -48 10 -82 0 -71 17 -99 60 -99 51 0 65 21 70 106 5 84 23 111 54
85 22 -19 23 -238 1 -280 -25 -49 -72 -81 -118 -81 -77 0 -133 56 -92 90 12
10 20 9 40 -4 28 -18 58 -20 86 -6 32 18 21 28 -24 23 -54 -6 -100 16 -127 60
-16 25 -20 50 -20 113 0 44 3 84 7 87 13 14 43 7 53 -12z m-2613 -123 c30 -28
30 -74 1 -105 -29 -31 -72 -30 -103 2 -69 68 31 170 102 103z m108 -333 c0
-170 -1 -180 -19 -183 -38 -8 -46 23 -46 181 0 159 7 190 43 185 22 -3 22 -6
22 -183z m110 0 c0 -170 -1 -180 -19 -183 -38 -8 -46 23 -46 181 0 159 7 190
43 185 22 -3 22 -6 22 -183z m1174 156 c14 -26 -8 -54 -39 -49 -25 3 -36 27
-26 54 8 20 53 17 65 -5z m-195 -7 c10 -4 16 -18 16 -35 0 -26 3 -29 34 -29
70 0 73 -62 2 -68 -36 -3 -36 -3 -36 -51 0 -54 14 -78 49 -83 59 -8 47 -68
-14 -68 -65 0 -105 60 -105 156 0 37 -3 43 -26 48 -20 5 -25 12 -22 34 2 19 9
28 26 30 14 2 22 10 22 22 0 10 7 26 16 34 18 18 17 18 38 10z m-1238 -95 c49
-46 67 -106 44 -149 -7 -13 -7 -21 0 -25 5 -3 10 -17 10 -30 0 -28 -29 -48
-51 -35 -7 5 -37 7 -65 4 -37 -5 -59 -2 -83 10 -90 47 -95 182 -8 237 43 27
117 21 153 -12z m495 16 c120 -62 72 -255 -63 -255 -39 0 -90 29 -113 63 -73
112 57 253 176 192z m304 -15 c29 -27 31 -42 9 -61 -13 -10 -20 -10 -44 4 -54
33 -110 10 -110 -45 0 -62 52 -86 110 -51 24 14 31 14 44 4 22 -19 20 -34 -8
-60 -33 -31 -102 -39 -145 -17 -90 47 -95 182 -8 237 43 27 117 21 152 -11z
m246 7 c19 -12 43 -40 53 -61 16 -33 18 -46 8 -80 -7 -26 -7 -45 -1 -50 26
-27 -10 -75 -41 -56 -8 5 -40 7 -70 4 -91 -9 -152 44 -152 131 0 53 20 88 65
115 43 26 96 25 138 -3z m373 17 c24 -9 24 -252 0 -261 -9 -3 -24 -2 -33 4
-13 8 -17 32 -19 123 -3 129 6 152 52 134z m242 -10 c94 -45 98 -175 8 -235
-88 -58 -212 21 -201 127 10 97 104 150 193 108z m319 -14 c43 -40 55 -73 55
-148 0 -77 -16 -105 -48 -85 -13 7 -18 30 -22 87 -4 62 -9 81 -24 92 -26 18
-56 18 -84 -2 -19 -13 -22 -24 -22 -88 0 -78 -12 -101 -47 -94 -16 3 -18 16
-19 109 0 57 -4 110 -8 117 -18 29 13 40 104 38 79 -1 92 -4 115 -26z m292 14
c13 -34 -11 -49 -81 -52 -50 -2 -66 -6 -66 -17 0 -11 14 -15 56 -15 48 0 59
-4 85 -29 17 -18 29 -40 29 -56 0 -16 -12 -38 -29 -56 -28 -27 -34 -29 -109
-29 -60 0 -83 4 -93 16 -9 11 -10 20 -2 32 8 13 28 18 87 20 59 2 76 6 76 17
0 11 -14 15 -56 15 -48 0 -59 4 -85 29 -17 18 -29 40 -29 56 0 16 12 38 29 56
27 27 35 29 106 29 61 0 77 -3 82 -16z m-1967 -553 c12 -23 -10 -51 -39 -51
-10 0 -24 -7 -31 -15 -11 -13 -7 -15 23 -15 41 0 61 -23 46 -52 -6 -12 -21
-18 -44 -18 l-35 0 0 -95 c0 -79 -3 -97 -16 -102 -37 -14 -49 10 -52 106 -2
82 -5 91 -22 91 -26 0 -45 36 -29 56 6 8 20 14 30 14 12 0 21 10 25 25 15 61
119 101 144 56z m1168 7 c15 -15 17 -241 2 -268 -7 -13 -7 -21 0 -25 5 -3 10
-17 10 -30 0 -28 -29 -48 -51 -35 -7 5 -37 7 -65 4 -88 -11 -154 45 -154 131
0 85 66 142 152 132 l48 -6 0 42 c0 42 13 67 35 67 6 0 16 -5 23 -12z m635
-20 c8 -12 7 -21 -2 -32 -19 -23 -58 -20 -66 4 -14 43 44 67 68 28z m-2565 -7
c8 -4 12 -19 10 -32 -3 -23 -7 -24 -90 -27 l-88 -3 0 -34 0 -35 71 0 c65 0 73
-2 100 -29 49 -49 35 -128 -28 -160 -35 -18 -188 -14 -204 5 -9 11 -10 20 -2
32 8 13 31 18 99 22 87 5 89 6 89 30 0 24 -2 25 -85 30 -47 3 -91 9 -97 13
-17 11 -18 168 -1 185 14 14 205 17 226 3z m165 -2 c24 -11 47 -47 47 -74 0
-29 -46 -68 -79 -68 -70 0 -101 84 -47 130 30 26 44 28 79 12z m225 -14 c5
-22 -284 -315 -309 -315 -9 0 -20 8 -23 17 -5 12 33 57 148 171 88 88 160 152
168 150 7 -3 15 -13 16 -23z m1986 9 c9 -8 16 -24 16 -35 0 -14 7 -19 29 -19
63 0 65 -62 2 -68 l-32 -3 3 -62 c3 -60 4 -62 32 -67 71 -12 53 -76 -19 -67
-63 9 -85 42 -85 128 0 61 -2 69 -19 69 -10 0 -24 7 -32 16 -16 20 -1 48 30
52 14 2 21 11 21 26 0 21 17 46 31 46 4 0 15 -7 23 -16z m-1393 -77 c19 -12
42 -38 52 -57 58 -113 -80 -237 -190 -170 -45 27 -65 62 -65 115 0 53 20 88
65 115 43 27 96 25 138 -3z m149 4 c5 -11 10 -48 10 -82 0 -71 17 -99 60 -99
51 0 65 21 70 106 5 84 23 111 54 85 18 -15 22 -123 6 -165 -6 -16 -6 -27 0
-31 6 -4 10 -17 10 -30 0 -28 -29 -48 -51 -35 -7 5 -37 7 -65 4 -61 -8 -106
12 -134 59 -16 25 -20 50 -20 113 0 44 3 84 7 87 13 14 43 7 53 -12z m465 -11
c43 -40 55 -73 55 -148 0 -77 -16 -105 -48 -85 -13 7 -18 30 -22 87 -4 62 -9
81 -24 92 -26 18 -56 18 -84 -2 -19 -13 -22 -24 -22 -88 0 -78 -12 -101 -47
-94 -16 3 -18 16 -19 109 0 57 -4 110 -8 117 -18 29 13 40 104 38 79 -1 92 -4
115 -26z m591 -1 c49 -46 67 -106 44 -149 -7 -13 -7 -21 0 -25 5 -3 10 -17 10
-30 0 -28 -29 -48 -51 -35 -7 5 -37 7 -65 4 -37 -5 -59 -2 -83 10 -90 47 -95
182 -8 237 43 27 117 21 153 -12z m369 -104 c0 -118 -2 -130 -19 -133 -10 -2
-22 0 -27 5 -10 10 -14 236 -4 252 4 7 17 11 28 9 21 -3 22 -7 22 -133z m231
119 c67 -32 95 -127 55 -188 -80 -121 -262 -60 -248 82 10 94 106 147 193 106z
m301 -1 c54 -25 73 -68 73 -161 0 -72 -2 -81 -20 -87 -37 -12 -50 11 -50 86 0
77 -19 109 -65 109 -46 0 -65 -32 -65 -109 0 -76 -16 -104 -48 -84 -14 9 -17
30 -18 129 -1 66 0 122 2 125 7 13 160 7 191 -8z m311 -15 c4 -31 -8 -36 -93
-40 -58 -3 -63 -22 -8 -26 61 -4 81 -11 103 -34 28 -31 26 -83 -5 -113 -22
-23 -32 -25 -109 -25 -74 0 -87 3 -96 19 -18 34 12 51 91 51 55 0 69 3 69 15
0 11 -13 15 -54 15 -73 0 -108 28 -108 85 0 30 6 45 27 63 24 20 36 22 104 20
74 -3 76 -4 79 -30z m-3031 -110 c30 -28 30 -74 1 -105 -29 -31 -72 -30 -103
2 -69 68 31 170 102 103z m961 -160 c15 -15 17 -241 2 -268 -7 -13 -7 -21 0
-25 5 -3 10 -17 10 -30 0 -28 -29 -48 -51 -35 -7 5 -37 7 -65 4 -88 -11 -154
45 -154 131 0 85 66 142 152 132 l48 -6 0 42 c0 42 13 67 35 67 6 0 16 -5 23
-12z m-653 -108 c47 -29 69 -77 62 -136 -3 -27 -1 -57 4 -66 13 -25 -24 -63
-48 -49 -10 5 -41 7 -69 4 -42 -5 -59 -2 -87 16 -63 38 -83 116 -49 180 35 66
124 90 187 51z m320 -10 c43 -40 55 -73 55 -148 0 -77 -16 -105 -48 -85 -13 7
-18 30 -22 87 -4 62 -9 81 -24 92 -26 18 -56 18 -84 -2 -19 -13 -22 -24 -22
-88 0 -78 -12 -101 -47 -94 -16 3 -18 16 -19 103 -1 55 -5 108 -9 118 -15 35
11 46 105 44 79 -2 91 -5 115 -27z m703 13 c21 -13 27 -13 59 2 48 23 99 14
138 -25 29 -29 30 -33 30 -121 0 -75 -3 -94 -17 -102 -32 -21 -48 8 -48 89 0
76 -13 104 -48 104 -38 0 -47 -18 -52 -101 -4 -62 -9 -85 -22 -92 -32 -21 -48
8 -48 89 0 75 -13 104 -47 104 -39 0 -53 -30 -53 -112 0 -64 -3 -80 -16 -85
-9 -3 -24 -2 -33 4 -13 8 -16 31 -18 124 -1 63 0 119 2 125 5 18 145 16 173
-3z m468 -14 c70 -66 71 -142 1 -208 -34 -31 -102 -39 -146 -17 -90 47 -95
182 -8 237 43 27 117 21 153 -12z m247 9 c13 -20 -6 -48 -32 -48 -9 0 -27 -7
-39 -16 -19 -13 -22 -24 -22 -88 0 -78 -12 -101 -47 -94 -16 3 -18 16 -19 109
0 57 -4 110 -8 117 -16 27 13 40 86 38 54 -1 73 -5 81 -18z m244 -21 c18 -20
35 -48 39 -63 12 -48 -4 -58 -102 -64 -92 -5 -101 -19 -20 -30 42 -5 63 -27
53 -54 -8 -21 -87 -22 -128 -1 -88 46 -92 182 -6 236 24 15 44 19 81 16 41 -4
55 -10 83 -40z m-15879 -3530 l3 -107 2824 0 2825 0 0 90 0 90 2730 0 2730 0
0 -90 0 -90 2815 0 2815 0 0 90 c0 73 3 90 15 90 12 0 15 -19 15 -110 l0 -110
-2850 0 -2850 0 0 95 0 95 -2692 -3 -2693 -2 -3 -92 -3 -93 -2854 0 -2855 0 0
131 c0 100 3 130 13 127 8 -3 13 -37 15 -111z m1542 65 c0 -42 -5 -53 -35 -82
l-35 -34 -35 34 c-30 29 -35 40 -35 82 l0 48 70 0 70 0 0 -48z m13089 1 c-1
-43 -5 -52 -40 -82 l-40 -34 -34 33 c-30 29 -35 40 -35 82 l0 48 75 0 75 0 -1
-47z m-13309 -48 l0 -75 -620 0 -620 0 0 75 0 75 620 0 620 0 0 -75z m15360 0
l0 -75 -990 0 -990 0 0 75 0 75 990 0 990 0 0 -75z m-10690 -380 l0 -45 -135
0 -135 0 0 -25 0 -25 135 0 135 0 0 -110 0 -110 -181 0 -180 0 3 43 3 42 138
3 c136 3 138 3 135 25 -3 21 -7 22 -140 25 l-138 3 0 109 0 110 180 0 180 0 0
-45z m410 -135 l0 -180 -39 0 c-37 0 -40 2 -43 33 l-3 32 -92 3 -93 3 0 -36
c0 -35 0 -35 -45 -35 l-45 0 0 180 0 180 180 0 180 0 0 -180z m410 135 l0 -45
-135 0 -135 0 0 -25 0 -25 135 0 135 0 0 -45 0 -45 -135 0 -135 0 0 -65 0 -65
-45 0 -45 0 0 180 0 180 180 0 180 0 0 -45z m420 0 l0 -45 -140 0 -140 0 0
-25 0 -25 141 0 140 0 -3 -42 -3 -43 -137 -3 c-129 -2 -138 -4 -138 -22 0 -18
9 -20 138 -22 l137 -3 3 -42 3 -43 -185 0 -186 0 0 173 c0 96 3 177 7 180 3 4
87 7 185 7 l178 0 0 -45z m540 -135 l0 -180 -45 0 -45 0 0 135 0 135 -55 0
-55 0 0 -135 0 -135 -45 0 -45 0 0 135 0 135 -60 0 -60 0 0 -135 0 -135 -45 0
-45 0 0 173 c0 96 3 177 7 180 3 4 116 7 250 7 l243 0 0 -180z m410 0 l0 -180
-180 0 -180 0 0 180 0 180 180 0 180 0 0 -180z m420 0 l0 -180 -185 0 -185 0
0 173 c0 96 3 177 7 180 3 4 87 7 185 7 l178 0 0 -180z m130 151 c0 -25 12
-38 93 -95 l92 -66 3 96 3 95 42 -3 42 -3 3 -177 2 -178 -45 0 c-43 0 -45 1
-45 28 0 25 -13 38 -92 94 l-93 65 -3 -93 -3 -94 -44 0 -45 0 0 173 c0 96 3
177 7 180 3 4 24 7 45 7 35 0 38 -2 38 -29z m1010 -16 l0 -45 -135 0 -135 0 0
-90 0 -89 133 -3 132 -3 3 -42 3 -43 -180 0 -181 0 0 180 0 180 180 0 180 0 0
-45z m132 -22 l3 -68 93 -3 92 -3 0 71 0 70 45 0 45 0 0 -180 0 -180 -45 0
-45 0 0 70 0 71 -92 -3 -93 -3 -3 -67 -3 -68 -39 0 -40 0 0 180 0 180 40 0 39
0 3 -67z m688 -113 l0 -180 -45 0 c-45 0 -45 0 -45 35 l0 36 -92 -3 -93 -3 -3
-32 c-3 -31 -6 -33 -43 -33 l-39 0 0 180 0 180 180 0 180 0 0 -180z m140 0 l0
-180 -45 0 -45 0 0 180 0 180 45 0 45 0 0 -180z m132 149 c3 -26 16 -40 96
-96 l92 -64 0 95 0 96 45 0 45 0 0 -180 0 -180 -45 0 c-43 0 -45 1 -45 29 0
25 -12 38 -85 90 -47 34 -90 61 -95 61 -6 0 -10 -38 -10 -90 l0 -90 -40 0 -40
0 0 180 0 180 39 0 c37 0 40 -2 43 -31z"/>
<path d="M7250 10380 l0 -60 90 0 90 0 0 60 0 60 -90 0 -90 0 0 -60z"/>
<path d="M9030 10350 l0 -90 90 0 90 0 0 90 0 90 -90 0 -90 0 0 -90z"/>
<path d="M9440 10350 l0 -90 95 0 95 0 0 90 0 90 -95 0 -95 0 0 -90z"/>
<path d="M11400 10380 l0 -60 95 0 95 0 0 60 0 60 -95 0 -95 0 0 -60z"/>
<path d="M15930 8803 l0 -457 75 74 75 74 0 314 0 314 -67 69 c-36 38 -70 69
-75 69 -4 0 -8 -206 -8 -457z"/>
<path d="M16670 8803 l0 -457 75 74 75 74 0 316 0 316 -68 67 c-37 37 -71 67
-75 67 -4 0 -7 -206 -7 -457z"/>
<path d="M17410 8803 l0 -457 75 74 75 74 0 316 0 316 -68 67 c-37 37 -71 67
-75 67 -4 0 -7 -206 -7 -457z"/>
<path d="M16170 9125 l0 -60 127 -127 128 -128 -128 -128 -128 -128 3 -60 3
-59 188 185 187 185 -190 190 -190 190 0 -60z"/>
<path d="M16910 9125 l0 -60 127 -127 128 -128 -128 -128 -128 -128 3 -60 3
-59 188 185 187 185 -190 190 -190 190 0 -60z"/>
<path d="M17650 9124 l0 -59 127 -127 128 -128 -128 -128 -127 -127 0 -58 c0
-31 3 -57 7 -57 4 0 90 82 190 182 l182 182 -125 129 c-69 71 -154 156 -190
189 l-64 60 0 -58z"/>
<path d="M16908 8929 c-2 -57 -1 -157 2 -222 l5 -117 110 110 110 110 -112
112 -112 112 -3 -105z"/>
<path d="M17650 8810 l0 -225 112 113 113 112 -113 112 -112 113 0 -225z"/>
<path d="M16160 8805 c0 -118 3 -215 8 -215 4 0 57 50 117 110 l110 111 -107
104 c-58 58 -111 105 -117 105 -8 0 -11 -68 -11 -215z"/>
<path d="M7917 7599 c-21 -13 -50 -66 -42 -79 11 -19 56 -10 81 15 44 44 14
95 -39 64z"/>
<path d="M8086 7299 c-31 -37 -30 -63 2 -67 27 -4 85 50 80 75 -6 32 -52 28
-82 -8z"/>
<path d="M5344 7442 c-33 -22 -46 -98 -17 -109 19 -8 63 38 63 67 0 43 -19 60
-46 42z"/>
<path d="M5611 7246 c-36 -43 -27 -115 12 -100 25 9 50 62 43 90 -7 27 -37 32
-55 10z"/>
<path d="M15885 6750 c-37 -41 -9 -110 46 -110 28 0 69 39 69 65 0 7 -9 24
-21 39 -25 32 -68 35 -94 6z"/>
<path d="M14152 6828 c-32 -32 17 -71 63 -50 42 19 25 62 -25 62 -14 0 -31 -5
-38 -12z"/>
<path d="M14130 6685 c-21 -25 5 -45 61 -45 37 0 51 4 58 18 15 28 -5 42 -60
42 -29 0 -51 -6 -59 -15z"/>
<path d="M14455 6828 c-30 -17 -35 -28 -35 -90 0 -66 22 -98 65 -98 44 0 65
32 65 99 0 52 -3 62 -26 80 -30 24 -41 25 -69 9z m53 -60 c21 -21 14 -57 -12
-64 -32 -8 -46 2 -46 30 0 24 17 46 35 46 6 0 16 -5 23 -12z"/>
<path d="M14700 6830 c0 -13 7 -20 20 -20 13 0 20 7 20 20 0 13 -7 20 -20 20
-13 0 -20 -7 -20 -20z"/>
<path d="M15230 6790 l0 -50 68 0 c75 0 92 10 92 52 0 36 -24 48 -99 48 l-61
0 0 -50z"/>
<path d="M17110 6750 c-11 -11 -20 -31 -20 -45 0 -14 9 -34 20 -45 11 -11 31
-20 45 -20 14 0 34 9 45 20 11 11 20 31 20 45 0 14 -9 34 -20 45 -11 11 -31
20 -45 20 -14 0 -34 -9 -45 -20z"/>
<path d="M17520 6755 c-11 -13 -5 -15 40 -15 45 0 51 2 40 15 -7 8 -25 15 -40
15 -15 0 -33 -7 -40 -15z"/>
<path d="M14884 6659 c-10 -17 23 -46 37 -32 7 7 9 19 6 27 -7 18 -33 21 -43
5z"/>
<path d="M2465 3620 c10 -11 20 -20 23 -20 3 0 -3 9 -13 20 -10 11 -20 20 -23
20 -3 0 3 -9 13 -20z"/>
<path d="M2545 3550 c10 -11 20 -20 23 -20 3 0 -3 9 -13 20 -10 11 -20 20 -23
20 -3 0 3 -9 13 -20z"/>
<path d="M6460 1970 c-85 -10 -191 -19 -236 -19 -44 -1 -84 -4 -88 -8 -8 -8
223 -243 239 -243 6 0 75 65 155 145 133 133 142 145 115 144 -17 -1 -100 -10
-185 -19z"/>
<path d="M14690 5960 c0 -13 7 -20 20 -20 13 0 20 7 20 20 0 13 -7 20 -20 20
-13 0 -20 -7 -20 -20z"/>
<path d="M15481 5874 c-24 -31 -25 -37 -10 -67 16 -29 28 -37 60 -37 34 0 59
29 59 67 0 61 -71 85 -109 37z"/>
<path d="M14874 5789 c-10 -17 23 -46 37 -32 7 7 9 19 6 27 -7 18 -33 21 -43
5z"/>
<path d="M14782 5494 c-15 -10 -22 -25 -22 -49 0 -58 69 -86 110 -45 58 58
-20 142 -88 94z"/>
<path d="M15291 5484 c-24 -31 -25 -37 -10 -67 16 -29 28 -37 60 -37 34 0 59
29 59 67 0 61 -71 85 -109 37z"/>
<path d="M15835 5490 c-37 -41 -9 -110 46 -110 28 0 69 39 69 65 0 7 -9 24
-21 39 -25 32 -68 35 -94 6z"/>
<path d="M16460 5490 c-11 -11 -20 -31 -20 -45 0 -14 9 -34 20 -45 11 -11 31
-20 45 -20 14 0 34 9 45 20 11 11 20 31 20 45 0 14 -9 34 -20 45 -11 11 -31
20 -45 20 -14 0 -34 -9 -45 -20z"/>
<path d="M16212 4844 c-28 -19 -30 -74 -4 -97 25 -23 68 -21 92 3 58 58 -20
142 -88 94z"/>
<path d="M14560 4920 c0 -13 7 -20 20 -20 13 0 20 7 20 20 0 13 -7 20 -20 20
-13 0 -20 -7 -20 -20z"/>
<path d="M15315 4840 c-37 -41 -9 -110 46 -110 28 0 69 39 69 65 0 7 -9 24
-21 39 -25 32 -68 35 -94 6z"/>
<path d="M16512 4844 c-28 -19 -30 -74 -4 -97 25 -23 68 -21 92 3 58 58 -20
142 -88 94z"/>
<path d="M17130 4840 c-40 -40 -11 -110 45 -110 32 0 65 33 65 65 0 32 -33 65
-65 65 -14 0 -34 -9 -45 -20z"/>
<path d="M14744 4749 c-10 -17 23 -46 37 -32 7 7 9 19 6 27 -7 18 -33 21 -43
5z"/>
<path d="M15612 4454 c-15 -10 -22 -25 -22 -49 0 -58 69 -86 110 -45 58 58
-20 142 -88 94z"/>
<path d="M15010 4450 c-40 -40 -11 -110 45 -110 32 0 65 33 65 65 0 32 -33 65
-65 65 -14 0 -34 -9 -45 -20z"/>
<path d="M16492 4454 c-15 -10 -22 -25 -22 -49 0 -58 69 -86 110 -45 58 58
-20 142 -88 94z"/>
<path d="M16974 4455 c-17 -13 -14 -14 41 -14 55 0 58 1 41 14 -11 8 -29 15
-41 15 -12 0 -30 -7 -41 -15z"/>
<path d="M7360 500 l0 -61 93 3 92 3 3 58 3 57 -96 0 -95 0 0 -60z"/>
<path d="M9140 470 l0 -91 92 3 93 3 3 88 4 87 -96 0 -96 0 0 -90z"/>
<path d="M9550 470 l0 -90 95 0 95 0 0 90 0 90 -95 0 -95 0 0 -90z"/>
<path d="M11512 503 l3 -58 93 -3 92 -3 0 61 0 60 -95 0 -96 0 3 -57z"/>
</g>
</svg>
